# xmcd
#
# Track frame offsets:
#	150
#	15102
#	26186
#	43069
#	57745
#	71933
#	85913
#	99080
#	113868
#	128655
#	143486
#	159151
#	173812
#	185892
#	203581
#	215614
#	227861
#	243693
#	262888
#	275691
#	289178
#	299475
#	313650
#
# Disc length: 4330 seconds
#
# Revision: 0
# Processed by: cddbd v1.5.2PL0 Copyright (c) Steve Scherf et al.
# Submitted via: EZCDAudioConverter 7.1.0.1
#
DISCID=5a10e817
DTITLE=Nu Urban Traxx Volume 253 US
DYEAR=2018
DGENRE=blues
TTITLE0=Saweetie and London On Da Track ft. Rich The Kid and G-Eazy - Up Now
TTITLE1=Lil Baby and Gunna - Drip Too Hard
TTITLE2=Travis Scott - Sicko Mode
TTITLE3=Nicki Minaj -  Barbie Dreams 
TTITLE4=Bri Steves -  Jealousy
TTITLE5=Sheck Wes - Mo Bamba
TTITLE6=DaniLeigh - Lil BeBe
TTITLE7=Ayo and Teo ft. Lil Yachty - AY3
TTITLE8=Flipp Dinero - Leave Me Alone
TTITLE9=Lil Yachty ft. Cardi B and Offset - Who Want The Smoke
TTITLE10=Lil Donald - Do Better
TTITLE11=G Herbo (aka Lil Herb) ft. Southside - Swervo
TTITLE12=DJ Holiday ft. Quavo and 21 Savage - 2 Seater
TTITLE13=Tamia -  Leave It Smokin' 
TTITLE14=Philthy Rich ft. TK Kravitz - Exhausted
TTITLE15=MadeinTYO ft A$AP Ferg - Ned Flanders
TTITLE16=Vic Mensa ft. G-Eazy - Reverse
TTITLE17=Preme - Frostbite
TTITLE18=Coca Vango - Sauce All On Me
TTITLE19=Gucci Mane ft. Lil Pump - Kept Back
TTITLE20=XXXTENTACION - Moonlight
TTITLE21=The Game ft. Ty Dolla $ign and Jeremih - DTF
TTITLE22=Russ - The Flute Song
EXTD=
EXTT0=
EXTT1=
EXTT2=
EXTT3=
EXTT4=
EXTT5=
EXTT6=
EXTT7=
EXTT8=
EXTT9=
EXTT10=
EXTT11=
EXTT12=
EXTT13=
EXTT14=
EXTT15=
EXTT16=
EXTT17=
EXTT18=
EXTT19=
EXTT20=
EXTT21=
EXTT22=
PLAYORDER=
